<mxfile host="app.diagrams.net" modified="2023-12-19T12:02:17.803Z" agent="Mozilla/5.0 (Windows NT 6.1; Win64; x64) AppleWebKit/537.36 (KHTML, like Gecko) Chrome/118.0.5993.771 YaBrowser/23.11.2.771 Yowser/2.5 Safari/537.36" etag="6u9jhdYjd6-ACyUO403o" version="22.1.11" type="github">
  <diagram name="Страница — 1" id="vKFATdl1JHZt0jTh2OOp">
    <mxGraphModel dx="1960" dy="1110" grid="1" gridSize="10" guides="1" tooltips="1" connect="1" arrows="1" fold="1" page="1" pageScale="1" pageWidth="827" pageHeight="1169" math="0" shadow="0">
      <root>
        <mxCell id="0" />
        <mxCell id="1" parent="0" />
        <mxCell id="QuNzs_IujXY1rbACGQIk-1" value="ВЫБЕРИТЕ СКИН ПЕРСОНАЖА" style="rounded=1;whiteSpace=wrap;html=1;fontFamily=Helvetica;fontSize=11;fontColor=default;" parent="1" vertex="1">
          <mxGeometry x="90" y="410" width="410" height="570" as="geometry" />
        </mxCell>
        <mxCell id="iMHuCmBe2SRVm38gu1dM-5" value="" style="shape=flexArrow;endArrow=classic;html=1;rounded=0;exitX=1.007;exitY=0.469;exitDx=0;exitDy=0;exitPerimeter=0;" edge="1" parent="1">
          <mxGeometry width="50" height="50" relative="1" as="geometry">
            <mxPoint x="500.00000000000034" y="680.3300000000002" as="sourcePoint" />
            <mxPoint x="687.13" y="680" as="targetPoint" />
          </mxGeometry>
        </mxCell>
        <mxCell id="iMHuCmBe2SRVm38gu1dM-6" value="" style="rounded=1;whiteSpace=wrap;html=1;fontFamily=Helvetica;fontSize=11;fontColor=default;" vertex="1" parent="1">
          <mxGeometry x="690" y="410" width="410" height="570" as="geometry" />
        </mxCell>
      </root>
    </mxGraphModel>
  </diagram>
</mxfile>
